<?xml version="1.0" encoding="iso-8859-1"?>
<!-- Generator: Adobe Illustrator 19.0.0, SVG Export Plug-In . SVG Version: 6.00 Build 0)  -->
<svg version="1.1" id="Capa_1" xmlns="http://www.w3.org/2000/svg" xmlns:xlink="http://www.w3.org/1999/xlink" x="0px" y="0px"
	 viewBox="0 0 475 475" style="enable-background:new 0 0 475 475;" xml:space="preserve">
<g>
	<path d="M389.524,125.961c31.33-3.723,55.71-30.435,55.71-62.75c0-34.854-28.356-63.21-63.21-63.21H92.976
		c-34.854,0-63.21,28.356-63.21,63.21c0,32.315,24.38,59.027,55.71,62.75v76.508c-11.528,3.274-20,13.889-20,26.452
		s8.472,23.178,20,26.452V467.5c0,4.142,3.358,7.5,7.5,7.5s7.5-3.358,7.5-7.5V256.421h274.048V467.5c0,4.142,3.358,7.5,7.5,7.5
		s7.5-3.358,7.5-7.5V255.373c11.528-3.274,20-13.889,20-26.452s-8.472-23.178-20-26.452V125.961z M44.765,63.21
		c0-26.583,21.627-48.21,48.21-48.21h289.048c26.583,0,48.21,21.627,48.21,48.21s-21.627,48.21-48.21,48.21
		s-48.21-21.627-48.21-48.21c0-7.853,1.826-15.338,5.426-22.246c1.915-3.673,0.489-8.203-3.185-10.117
		c-3.673-1.915-8.203-0.489-10.117,3.185c-4.661,8.942-7.125,19.032-7.125,29.179c0,32.315,24.38,59.027,55.71,62.75v35.46H152.976
		c-4.142,0-7.5,3.358-7.5,7.5s3.358,7.5,7.5,7.5h221.548v25H100.476v-25h22.5c4.142,0,7.5-3.358,7.5-7.5s-3.358-7.5-7.5-7.5h-22.5
		v-35.46c31.33-3.723,55.71-30.435,55.71-62.75c0-10.145-2.463-20.235-7.125-29.179c-1.915-3.673-6.442-5.1-10.117-3.185
		c-3.673,1.914-5.099,6.444-3.185,10.117c3.601,6.909,5.426,14.394,5.426,22.246c0,26.583-21.627,48.21-48.21,48.21
		S44.765,89.794,44.765,63.21z M394.524,228.921c0,6.893-5.607,12.5-12.5,12.5H92.976c-6.893,0-12.5-5.607-12.5-12.5
		s5.607-12.5,12.5-12.5h289.048C388.917,216.421,394.524,222.028,394.524,228.921z"/>
	<path d="M155.238,281.421c-15.164,0-27.5,12.336-27.5,27.5V467.5c0,4.142,3.358,7.5,7.5,7.5s7.5-3.358,7.5-7.5V308.921
		c0-6.893,5.607-12.5,12.5-12.5s12.5,5.607,12.5,12.5V467.5c0,4.142,3.358,7.5,7.5,7.5s7.5-3.358,7.5-7.5V308.921
		C182.738,293.757,170.402,281.421,155.238,281.421z"/>
	<path d="M237.5,281.421c-15.164,0-27.5,12.336-27.5,27.5V467.5c0,4.142,3.358,7.5,7.5,7.5s7.5-3.358,7.5-7.5V308.921
		c0-6.893,5.607-12.5,12.5-12.5s12.5,5.607,12.5,12.5V467.5c0,4.142,3.358,7.5,7.5,7.5s7.5-3.358,7.5-7.5V308.921
		C265,293.757,252.663,281.421,237.5,281.421z"/>
	<path d="M319.762,281.421c-15.164,0-27.5,12.336-27.5,27.5V467.5c0,4.142,3.358,7.5,7.5,7.5s7.5-3.358,7.5-7.5V308.921
		c0-6.893,5.607-12.5,12.5-12.5s12.5,5.607,12.5,12.5v30c0,4.142,3.358,7.5,7.5,7.5s7.5-3.358,7.5-7.5v-30
		C347.262,293.757,334.926,281.421,319.762,281.421z"/>
	<path d="M339.762,361.421c-4.142,0-7.5,3.358-7.5,7.5V467.5c0,4.142,3.358,7.5,7.5,7.5s7.5-3.358,7.5-7.5v-98.579
		C347.262,364.779,343.904,361.421,339.762,361.421z"/>
	<path d="M126.186,63.21c0-4.142-3.358-7.5-7.5-7.5s-7.5,3.358-7.5,7.5c0,10.042-8.169,18.21-18.21,18.21s-18.21-8.169-18.21-18.21
		S82.934,45,92.976,45c4.142,0,7.5-3.358,7.5-7.5s-3.358-7.5-7.5-7.5c-18.313,0-33.21,14.898-33.21,33.21s14.898,33.21,33.21,33.21
		S126.186,81.523,126.186,63.21z"/>
	<path d="M382.024,96.421c18.313,0,33.21-14.898,33.21-33.21S400.337,30,382.024,30c-4.142,0-7.5,3.358-7.5,7.5s3.358,7.5,7.5,7.5
		c10.042,0,18.21,8.169,18.21,18.21s-8.169,18.21-18.21,18.21s-18.21-8.169-18.21-18.21c0-4.142-3.358-7.5-7.5-7.5
		s-7.5,3.358-7.5,7.5C348.814,81.523,363.712,96.421,382.024,96.421z"/>
	<path d="M178.686,70.71h117.627c4.142,0,7.5-3.358,7.5-7.5s-3.358-7.5-7.5-7.5H178.686c-4.142,0-7.5,3.358-7.5,7.5
		S174.544,70.71,178.686,70.71z"/>
</g>
<g>
</g>
<g>
</g>
<g>
</g>
<g>
</g>
<g>
</g>
<g>
</g>
<g>
</g>
<g>
</g>
<g>
</g>
<g>
</g>
<g>
</g>
<g>
</g>
<g>
</g>
<g>
</g>
<g>
</g>
</svg>
